<mxfile host="app.diagrams.net" modified="2020-10-14T18:29:39.413Z" agent="5.0 (Windows NT 10.0; Win64; x64) AppleWebKit/537.36 (KHTML, like Gecko) Chrome/86.0.4240.75 Safari/537.36" etag="LMqse7SiChQGymBJzB9z" version="13.8.0" type="github">
  <diagram id="C5RBs43oDa-KdzZeNtuy" name="Page-1">
    <mxGraphModel dx="868" dy="450" grid="1" gridSize="10" guides="1" tooltips="1" connect="1" arrows="1" fold="1" page="1" pageScale="1" pageWidth="827" pageHeight="1169" math="0" shadow="0">
      <root>
        <mxCell id="WIyWlLk6GJQsqaUBKTNV-0" />
        <mxCell id="WIyWlLk6GJQsqaUBKTNV-1" parent="WIyWlLk6GJQsqaUBKTNV-0" />
        <mxCell id="9qL1FHYtAj4AGX_vJoTr-10" value="Vartotojas&lt;br&gt;" style="shape=umlActor;verticalLabelPosition=bottom;verticalAlign=top;html=1;outlineConnect=0;" vertex="1" parent="WIyWlLk6GJQsqaUBKTNV-1">
          <mxGeometry x="70" y="150" width="50" height="110" as="geometry" />
        </mxCell>
        <mxCell id="9qL1FHYtAj4AGX_vJoTr-12" value="Administratorius&lt;br&gt;" style="shape=umlActor;verticalLabelPosition=bottom;verticalAlign=top;html=1;outlineConnect=0;" vertex="1" parent="WIyWlLk6GJQsqaUBKTNV-1">
          <mxGeometry x="630" y="20" width="40" height="80" as="geometry" />
        </mxCell>
        <mxCell id="9qL1FHYtAj4AGX_vJoTr-13" value="Renginių&lt;br&gt;&amp;nbsp;Organizatorius" style="shape=umlActor;verticalLabelPosition=bottom;verticalAlign=top;html=1;outlineConnect=0;" vertex="1" parent="WIyWlLk6GJQsqaUBKTNV-1">
          <mxGeometry x="630" y="270" width="50" height="80" as="geometry" />
        </mxCell>
        <mxCell id="9qL1FHYtAj4AGX_vJoTr-16" value="Registruojasi" style="ellipse;whiteSpace=wrap;html=1;" vertex="1" parent="WIyWlLk6GJQsqaUBKTNV-1">
          <mxGeometry x="210" y="40" width="80" height="50" as="geometry" />
        </mxCell>
        <mxCell id="9qL1FHYtAj4AGX_vJoTr-17" value="" style="ellipse;whiteSpace=wrap;html=1;" vertex="1" parent="WIyWlLk6GJQsqaUBKTNV-1">
          <mxGeometry x="174.48" y="220" width="90" height="50" as="geometry" />
        </mxCell>
        <mxCell id="9qL1FHYtAj4AGX_vJoTr-21" value="Prisijungia" style="text;html=1;strokeColor=none;fillColor=none;align=center;verticalAlign=middle;whiteSpace=wrap;rounded=0;labelBackgroundColor=none;fontFamily=Georgia;" vertex="1" parent="WIyWlLk6GJQsqaUBKTNV-1">
          <mxGeometry x="199.48" y="235" width="40" height="20" as="geometry" />
        </mxCell>
        <mxCell id="9qL1FHYtAj4AGX_vJoTr-26" value="" style="endArrow=none;html=1;fontFamily=Georgia;entryX=0;entryY=0.5;entryDx=0;entryDy=0;" edge="1" parent="WIyWlLk6GJQsqaUBKTNV-1" target="9qL1FHYtAj4AGX_vJoTr-16">
          <mxGeometry width="50" height="50" relative="1" as="geometry">
            <mxPoint x="130" y="210" as="sourcePoint" />
            <mxPoint x="280" y="210" as="targetPoint" />
          </mxGeometry>
        </mxCell>
        <mxCell id="9qL1FHYtAj4AGX_vJoTr-35" value="" style="ellipse;whiteSpace=wrap;html=1;labelBackgroundColor=none;fontFamily=Georgia;align=center;" vertex="1" parent="WIyWlLk6GJQsqaUBKTNV-1">
          <mxGeometry x="190" y="130" width="120" height="50" as="geometry" />
        </mxCell>
        <mxCell id="9qL1FHYtAj4AGX_vJoTr-36" value="Patvirtina Tapatybę" style="text;html=1;strokeColor=none;fillColor=none;align=center;verticalAlign=middle;whiteSpace=wrap;rounded=0;labelBackgroundColor=none;fontFamily=Georgia;" vertex="1" parent="WIyWlLk6GJQsqaUBKTNV-1">
          <mxGeometry x="230" y="145" width="40" height="20" as="geometry" />
        </mxCell>
        <mxCell id="9qL1FHYtAj4AGX_vJoTr-38" value="" style="endArrow=none;html=1;fontFamily=Georgia;entryX=0;entryY=0.5;entryDx=0;entryDy=0;" edge="1" parent="WIyWlLk6GJQsqaUBKTNV-1" target="9qL1FHYtAj4AGX_vJoTr-17">
          <mxGeometry width="50" height="50" relative="1" as="geometry">
            <mxPoint x="130" y="210" as="sourcePoint" />
            <mxPoint x="340" y="210" as="targetPoint" />
          </mxGeometry>
        </mxCell>
        <mxCell id="9qL1FHYtAj4AGX_vJoTr-41" value="" style="ellipse;whiteSpace=wrap;html=1;labelBackgroundColor=none;fontFamily=Georgia;align=center;" vertex="1" parent="WIyWlLk6GJQsqaUBKTNV-1">
          <mxGeometry x="470" y="210" width="90" height="60" as="geometry" />
        </mxCell>
        <mxCell id="9qL1FHYtAj4AGX_vJoTr-42" value="Redaguoja esamus renginius" style="text;html=1;strokeColor=none;fillColor=none;align=center;verticalAlign=middle;whiteSpace=wrap;rounded=0;labelBackgroundColor=none;fontFamily=Georgia;" vertex="1" parent="WIyWlLk6GJQsqaUBKTNV-1">
          <mxGeometry x="495" y="230" width="40" height="20" as="geometry" />
        </mxCell>
        <mxCell id="9qL1FHYtAj4AGX_vJoTr-43" value="" style="endArrow=none;html=1;fontFamily=Georgia;entryX=1;entryY=1;entryDx=0;entryDy=0;" edge="1" parent="WIyWlLk6GJQsqaUBKTNV-1" target="9qL1FHYtAj4AGX_vJoTr-41">
          <mxGeometry width="50" height="50" relative="1" as="geometry">
            <mxPoint x="620" y="300" as="sourcePoint" />
            <mxPoint x="290" y="190" as="targetPoint" />
          </mxGeometry>
        </mxCell>
        <mxCell id="9qL1FHYtAj4AGX_vJoTr-46" value="" style="endArrow=none;html=1;fontFamily=Georgia;" edge="1" parent="WIyWlLk6GJQsqaUBKTNV-1" source="9qL1FHYtAj4AGX_vJoTr-13" target="9qL1FHYtAj4AGX_vJoTr-47">
          <mxGeometry width="50" height="50" relative="1" as="geometry">
            <mxPoint x="240" y="240" as="sourcePoint" />
            <mxPoint x="470" y="320" as="targetPoint" />
          </mxGeometry>
        </mxCell>
        <mxCell id="9qL1FHYtAj4AGX_vJoTr-47" value="" style="ellipse;whiteSpace=wrap;html=1;" vertex="1" parent="WIyWlLk6GJQsqaUBKTNV-1">
          <mxGeometry x="430" y="310" width="90" height="50" as="geometry" />
        </mxCell>
        <mxCell id="9qL1FHYtAj4AGX_vJoTr-48" value="Įkelia Renginius" style="text;html=1;strokeColor=none;fillColor=none;align=center;verticalAlign=middle;whiteSpace=wrap;rounded=0;labelBackgroundColor=none;fontFamily=Georgia;" vertex="1" parent="WIyWlLk6GJQsqaUBKTNV-1">
          <mxGeometry x="460" y="325" width="40" height="20" as="geometry" />
        </mxCell>
        <mxCell id="9qL1FHYtAj4AGX_vJoTr-49" value="" style="ellipse;whiteSpace=wrap;html=1;labelBackgroundColor=none;fontFamily=Georgia;align=center;" vertex="1" parent="WIyWlLk6GJQsqaUBKTNV-1">
          <mxGeometry x="310" y="200" width="120" height="80" as="geometry" />
        </mxCell>
        <mxCell id="9qL1FHYtAj4AGX_vJoTr-53" value="Renginiai" style="text;html=1;strokeColor=none;fillColor=none;align=center;verticalAlign=middle;whiteSpace=wrap;rounded=0;labelBackgroundColor=none;fontFamily=Georgia;" vertex="1" parent="WIyWlLk6GJQsqaUBKTNV-1">
          <mxGeometry x="350" y="230" width="40" height="20" as="geometry" />
        </mxCell>
        <mxCell id="9qL1FHYtAj4AGX_vJoTr-54" value="" style="ellipse;whiteSpace=wrap;html=1;labelBackgroundColor=none;fontFamily=Georgia;align=center;" vertex="1" parent="WIyWlLk6GJQsqaUBKTNV-1">
          <mxGeometry x="440" y="110" width="70" height="50" as="geometry" />
        </mxCell>
        <mxCell id="9qL1FHYtAj4AGX_vJoTr-55" value="" style="endArrow=none;html=1;fontFamily=Georgia;entryX=0;entryY=1;entryDx=0;entryDy=0;exitX=0.708;exitY=0.063;exitDx=0;exitDy=0;exitPerimeter=0;" edge="1" parent="WIyWlLk6GJQsqaUBKTNV-1" source="9qL1FHYtAj4AGX_vJoTr-49" target="9qL1FHYtAj4AGX_vJoTr-54">
          <mxGeometry width="50" height="50" relative="1" as="geometry">
            <mxPoint x="240" y="230" as="sourcePoint" />
            <mxPoint x="290" y="180" as="targetPoint" />
          </mxGeometry>
        </mxCell>
        <mxCell id="9qL1FHYtAj4AGX_vJoTr-56" value="Prižiūri" style="text;html=1;strokeColor=none;fillColor=none;align=center;verticalAlign=middle;whiteSpace=wrap;rounded=0;labelBackgroundColor=none;fontFamily=Georgia;" vertex="1" parent="WIyWlLk6GJQsqaUBKTNV-1">
          <mxGeometry x="455" y="125" width="40" height="20" as="geometry" />
        </mxCell>
        <mxCell id="9qL1FHYtAj4AGX_vJoTr-58" value="" style="endArrow=none;html=1;fontFamily=Georgia;exitX=1;exitY=0;exitDx=0;exitDy=0;" edge="1" parent="WIyWlLk6GJQsqaUBKTNV-1" source="9qL1FHYtAj4AGX_vJoTr-54" target="9qL1FHYtAj4AGX_vJoTr-12">
          <mxGeometry width="50" height="50" relative="1" as="geometry">
            <mxPoint x="510" y="120" as="sourcePoint" />
            <mxPoint x="290" y="180" as="targetPoint" />
          </mxGeometry>
        </mxCell>
        <mxCell id="9qL1FHYtAj4AGX_vJoTr-59" style="edgeStyle=orthogonalEdgeStyle;rounded=0;orthogonalLoop=1;jettySize=auto;html=1;exitX=0.5;exitY=1;exitDx=0;exitDy=0;fontFamily=Georgia;" edge="1" parent="WIyWlLk6GJQsqaUBKTNV-1" source="9qL1FHYtAj4AGX_vJoTr-49" target="9qL1FHYtAj4AGX_vJoTr-49">
          <mxGeometry relative="1" as="geometry" />
        </mxCell>
        <mxCell id="9qL1FHYtAj4AGX_vJoTr-64" value="" style="ellipse;whiteSpace=wrap;html=1;" vertex="1" parent="WIyWlLk6GJQsqaUBKTNV-1">
          <mxGeometry x="230" y="315" width="108.96" height="40" as="geometry" />
        </mxCell>
        <mxCell id="9qL1FHYtAj4AGX_vJoTr-65" value="Pritaikomi Filtrai" style="text;html=1;strokeColor=none;fillColor=none;align=center;verticalAlign=middle;whiteSpace=wrap;rounded=0;labelBackgroundColor=none;fontFamily=Georgia;" vertex="1" parent="WIyWlLk6GJQsqaUBKTNV-1">
          <mxGeometry x="264.48" y="325" width="40" height="20" as="geometry" />
        </mxCell>
        <mxCell id="9qL1FHYtAj4AGX_vJoTr-67" value="" style="endArrow=none;html=1;fontFamily=Georgia;entryX=0.5;entryY=0;entryDx=0;entryDy=0;exitX=0.5;exitY=1;exitDx=0;exitDy=0;" edge="1" parent="WIyWlLk6GJQsqaUBKTNV-1" source="9qL1FHYtAj4AGX_vJoTr-16" target="9qL1FHYtAj4AGX_vJoTr-35">
          <mxGeometry width="50" height="50" relative="1" as="geometry">
            <mxPoint x="240" y="230" as="sourcePoint" />
            <mxPoint x="290" y="180" as="targetPoint" />
          </mxGeometry>
        </mxCell>
        <mxCell id="9qL1FHYtAj4AGX_vJoTr-69" value="" style="endArrow=classic;html=1;fontFamily=Georgia;entryX=1;entryY=0.5;entryDx=0;entryDy=0;" edge="1" parent="WIyWlLk6GJQsqaUBKTNV-1" source="9qL1FHYtAj4AGX_vJoTr-12" target="9qL1FHYtAj4AGX_vJoTr-16">
          <mxGeometry width="50" height="50" relative="1" as="geometry">
            <mxPoint x="240" y="230" as="sourcePoint" />
            <mxPoint x="290" y="180" as="targetPoint" />
          </mxGeometry>
        </mxCell>
        <mxCell id="9qL1FHYtAj4AGX_vJoTr-70" value="TIKRINA" style="text;html=1;strokeColor=none;fillColor=none;align=center;verticalAlign=middle;whiteSpace=wrap;rounded=0;labelBackgroundColor=none;fontFamily=Georgia;" vertex="1" parent="WIyWlLk6GJQsqaUBKTNV-1">
          <mxGeometry x="420" y="40" width="40" height="20" as="geometry" />
        </mxCell>
        <mxCell id="9qL1FHYtAj4AGX_vJoTr-72" value="" style="endArrow=classic;html=1;fontFamily=Georgia;exitX=0.5;exitY=1;exitDx=0;exitDy=0;entryX=0.257;entryY=0.075;entryDx=0;entryDy=0;entryPerimeter=0;" edge="1" parent="WIyWlLk6GJQsqaUBKTNV-1" source="9qL1FHYtAj4AGX_vJoTr-17" target="9qL1FHYtAj4AGX_vJoTr-64">
          <mxGeometry width="50" height="50" relative="1" as="geometry">
            <mxPoint x="250" y="270" as="sourcePoint" />
            <mxPoint x="270" y="310" as="targetPoint" />
          </mxGeometry>
        </mxCell>
        <mxCell id="9qL1FHYtAj4AGX_vJoTr-73" value="" style="endArrow=classic;html=1;fontFamily=Georgia;exitX=0.789;exitY=0.025;exitDx=0;exitDy=0;exitPerimeter=0;entryX=0.308;entryY=0.975;entryDx=0;entryDy=0;entryPerimeter=0;" edge="1" parent="WIyWlLk6GJQsqaUBKTNV-1" source="9qL1FHYtAj4AGX_vJoTr-64" target="9qL1FHYtAj4AGX_vJoTr-49">
          <mxGeometry width="50" height="50" relative="1" as="geometry">
            <mxPoint x="240" y="230" as="sourcePoint" />
            <mxPoint x="290" y="180" as="targetPoint" />
          </mxGeometry>
        </mxCell>
        <mxCell id="9qL1FHYtAj4AGX_vJoTr-74" value="" style="endArrow=none;html=1;fontFamily=Georgia;entryX=0;entryY=0.5;entryDx=0;entryDy=0;exitX=1;exitY=0.5;exitDx=0;exitDy=0;" edge="1" parent="WIyWlLk6GJQsqaUBKTNV-1" source="9qL1FHYtAj4AGX_vJoTr-49" target="9qL1FHYtAj4AGX_vJoTr-41">
          <mxGeometry width="50" height="50" relative="1" as="geometry">
            <mxPoint x="240" y="230" as="sourcePoint" />
            <mxPoint x="290" y="180" as="targetPoint" />
          </mxGeometry>
        </mxCell>
        <mxCell id="9qL1FHYtAj4AGX_vJoTr-75" value="" style="endArrow=none;html=1;fontFamily=Georgia;exitX=0;exitY=0;exitDx=0;exitDy=0;entryX=0.75;entryY=0.963;entryDx=0;entryDy=0;entryPerimeter=0;" edge="1" parent="WIyWlLk6GJQsqaUBKTNV-1" source="9qL1FHYtAj4AGX_vJoTr-47" target="9qL1FHYtAj4AGX_vJoTr-49">
          <mxGeometry width="50" height="50" relative="1" as="geometry">
            <mxPoint x="240" y="230" as="sourcePoint" />
            <mxPoint x="397" y="270" as="targetPoint" />
            <Array as="points" />
          </mxGeometry>
        </mxCell>
      </root>
    </mxGraphModel>
  </diagram>
</mxfile>
